<?xml version="1.0" encoding="UTF-8" standalone="no"?>
<!-- Created with Inkscape (http://www.inkscape.org/) -->

<svg
   width="16"
   height="16"
   viewBox="0 0 4.2333333 4.2333333"
   version="1.1"
   id="svg550"
   inkscape:version="1.2 (dc2aeda, 2022-05-15)"
   sodipodi:docname="io.github.gravures.acide-symbolic.svg"
   xmlns:inkscape="http://www.inkscape.org/namespaces/inkscape"
   xmlns:sodipodi="http://sodipodi.sourceforge.net/DTD/sodipodi-0.dtd"
   xmlns="http://www.w3.org/2000/svg"
   xmlns:svg="http://www.w3.org/2000/svg">
  <sodipodi:namedview
     id="namedview552"
     pagecolor="#989898"
     bordercolor="#e7e7e7"
     borderopacity="1"
     inkscape:showpageshadow="0"
     inkscape:pageopacity="0"
     inkscape:pagecheckerboard="0"
     inkscape:deskcolor="#686868"
     inkscape:document-units="mm"
     showgrid="false"
     inkscape:zoom="19.481993"
     inkscape:cx="11.420803"
     inkscape:cy="19.479526"
     inkscape:window-width="1920"
     inkscape:window-height="1047"
     inkscape:window-x="0"
     inkscape:window-y="0"
     inkscape:window-maximized="1"
     inkscape:current-layer="layer3"
     showguides="true"
     inkscape:lockguides="false" />
  <defs
     id="defs547">
    <rect
       x="146.99391"
       y="612.06079"
       width="97.294518"
       height="95.813332"
       id="rect481-8" />
  </defs>
  <g
     inkscape:label="Calque 1"
     inkscape:groupmode="layer"
     id="layer1"
     style="display:none">
    <rect
       style="fill:#050505;fill-opacity:1;stroke-width:0.799999;stroke-linecap:round;stroke-linejoin:round;stroke-dasharray:none;paint-order:stroke fill markers"
       id="rect943"
       width="164.02354"
       height="166.1548"
       x="-5.1663008"
       y="-7.4209719"
       rx="13.599999"
       ry="14.2" />
  </g>
  <g
     inkscape:groupmode="layer"
     id="layer2"
     inkscape:label="Calque 2"
     style="display:inline">
    <path
       id="rect844"
       style="fill:#fcfcfc;fill-opacity:1;stroke-width:0.0269191;stroke-linecap:round;stroke-linejoin:round;paint-order:stroke fill markers"
       d="m 2.6617136,1.2890384 0.083464,0.2418136 0.7678601,2.2246667 c 0.086366,0.2502236 0.015533,0.4778146 -0.4576259,0.4778146 H 1.3291463 c -0.47172944,0 -0.53887766,-0.2258839 -0.45762539,-0.4778146 L 1.6661927,1.5289176 1.7518058,1.2890384 c 0.03561,-0.1514161 0.03561,-0.38173867 0.03561,-0.38173867 v -0.7303562 h 0.8386847 v 0.7221914 c 0,0 -0.00749,0.22903877 0.03561,0.38990347 z"
       sodipodi:nodetypes="ccccccccccccc" />
    <path
       id="rect1627"
       style="display:inline;fill:#fcfcfc;stroke-width:0.0184357;stroke-linecap:round;stroke-linejoin:round;paint-order:stroke fill markers"
       d="m 1.9183024,-0.00775024 h 0.5769142 c 0.1265626,0 0.2284521,0.0808885 0.2284521,0.18136467 v 0.041297 c 0,0.1004761 -0.066277,0.1635591 -0.1928402,0.1635591 H 1.8826909 c -0.1265627,0 -0.1928407,-0.063083 -0.1928407,-0.1635591 v -0.041297 c 0,-0.10047616 0.1018895,-0.18136467 0.2284522,-0.18136467 z"
       sodipodi:nodetypes="sssssssss" />
  </g>
  <g
     inkscape:groupmode="layer"
     id="layer3"
     inkscape:label="type" />
</svg>
