<?xml version="1.0" encoding="UTF-8" standalone="no"?>
<!-- Created with Inkscape (http://www.inkscape.org/) -->

<svg
   width="150mm"
   height="150mm"
   viewBox="0 0 150 150"
   version="1.1"
   id="svg550"
   inkscape:version="1.2 (dc2aeda, 2022-05-15)"
   sodipodi:docname="io.github.gravures.acide.svg"
   xmlns:inkscape="http://www.inkscape.org/namespaces/inkscape"
   xmlns:sodipodi="http://sodipodi.sourceforge.net/DTD/sodipodi-0.dtd"
   xmlns="http://www.w3.org/2000/svg"
   xmlns:svg="http://www.w3.org/2000/svg">
  <sodipodi:namedview
     id="namedview552"
     pagecolor="#989898"
     bordercolor="#e7e7e7"
     borderopacity="1"
     inkscape:showpageshadow="0"
     inkscape:pageopacity="0"
     inkscape:pagecheckerboard="0"
     inkscape:deskcolor="#686868"
     inkscape:document-units="mm"
     showgrid="false"
     inkscape:zoom="0.8199246"
     inkscape:cx="137.20774"
     inkscape:cy="345.7635"
     inkscape:window-width="1920"
     inkscape:window-height="1047"
     inkscape:window-x="0"
     inkscape:window-y="0"
     inkscape:window-maximized="1"
     inkscape:current-layer="layer3"
     showguides="true"
     inkscape:lockguides="false" />
  <defs
     id="defs547">
    <rect
       x="146.99391"
       y="612.06079"
       width="97.294518"
       height="95.813332"
       id="rect481-8" />
  </defs>
  <g
     inkscape:label="Calque 1"
     inkscape:groupmode="layer"
     id="layer1"
     sodipodi:insensitive="true"
     style="display:none">
    <rect
       style="fill:#050505;fill-opacity:1;stroke-width:0.799999;stroke-linecap:round;stroke-linejoin:round;stroke-dasharray:none;paint-order:stroke fill markers"
       id="rect943"
       width="164.02354"
       height="166.1548"
       x="-5.1663008"
       y="-7.4209719"
       rx="13.599999"
       ry="14.2" />
  </g>
  <g
     inkscape:groupmode="layer"
     id="layer2"
     inkscape:label="Calque 2"
     style="display:inline"
     sodipodi:insensitive="true">
    <path
       id="rect844"
       style="fill:#fcfcfc;fill-opacity:1;stroke-width:0.8;stroke-linecap:round;stroke-linejoin:round;paint-order:stroke fill markers"
       d="m 91.324757,49.895327 2.480431,7.18638 22.819752,66.114063 c 2.56669,7.4363 0.4617,14.2 -13.60001,14.2 H 51.722674 c -14.019162,0 -16.014713,-6.71297 -13.6,-14.2 l 23.616565,-66.171557 2.544292,-7.128886 c 1.058333,-4.499876 1.058333,-11.344749 1.058333,-11.344749 V 16.84539 h 24.92456 v 21.462541 c 0,0 -0.222646,6.806719 1.058333,11.587396 z"
       sodipodi:nodetypes="ccccccccccccc" />
    <path
       id="rect1627"
       style="display:inline;fill:#fcfcfc;stroke-width:0.547885;stroke-linecap:round;stroke-linejoin:round;paint-order:stroke fill markers"
       d="m 69.231589,11.356541 h 17.145106 c 3.761265,0 6.789286,2.403901 6.789286,5.389912 v 1.227251 c 0,2.986011 -1.969688,4.860745 -5.730953,4.860745 H 68.173256 c -3.761265,0 -5.730953,-1.874734 -5.730953,-4.860745 v -1.227251 c 0,-2.986011 3.028021,-5.389912 6.789286,-5.389912 z"
       sodipodi:nodetypes="sssssssss" />
  </g>
  <g
     inkscape:groupmode="layer"
     id="layer3"
     inkscape:label="type">
    <g
       aria-label="a"
       id="text1793"
       style="font-style:oblique;font-weight:600;font-size:104.541px;line-height:125%;font-family:'Latin Modern Roman Demi';-inkscape-font-specification:'Latin Modern Roman Demi, Semi-Bold Oblique';letter-spacing:0px;word-spacing:0px;stroke-width:3.0706px">
      <path
         d="m 99.551065,124.53521 c 0.313623,-2.09082 -0.627246,-2.2999 -1.777197,-2.40444 -4.913427,-0.31362 -4.599804,-1.67266 -4.286181,-3.86802 l 3.763476,-22.580853 c 1.672656,-9.931395 -5.017968,-15.994773 -17.876512,-15.994773 -3.449853,0 -17.249265,0.209082 -18.81738,9.617772 -0.731787,4.599804 2.613525,6.586083 5.436132,6.586083 3.240771,0 6.899706,-2.195361 7.631493,-6.586083 0.627246,-3.345312 -1.463574,-5.22705 -1.463574,-5.22705 2.195361,-0.418164 3.13623,-0.627246 6.27246,-0.627246 6.27246,0 8.154198,5.017968 6.899706,12.126756 l -0.627246,3.763476 c -15.053904,0.313623 -29.585103,5.331588 -31.466841,16.308398 -1.463574,8.6769 7.840575,12.02221 15.68115,12.02221 6.377001,0 11.290428,-3.65893 14.217576,-8.36328 -0.313623,2.19536 -1.254492,7.73604 8.25874,7.73604 h 4.390722 c 2.09082,0 3.345312,0 3.763476,-2.50899 z M 82.510881,112.61754 c -1.463574,8.99053 -8.676903,11.29043 -11.708592,11.29043 -4.286181,0 -5.958837,-4.28618 -5.331591,-8.25874 1.986279,-11.49951 15.994773,-12.754 18.712839,-12.96309 z"
         id="path999" />
    </g>
  </g>
</svg>
